HIERARCHY
ROOT Hips
{
	OFFSET 0.000000 100.481300 0.000000
	CHANNELS 6 Xposition Yposition Zposition Xrotation Yrotation Zrotation
	JOINT Spine
	{
		OFFSET -0.279200 12.230698 -2.892100
		CHANNELS 3 Xrotation Yrotation Zrotation
		JOINT Spine1
		{
			OFFSET -0.325700 14.269203 -3.374200
			CHANNELS 3 Xrotation Yrotation Zrotation
			JOINT Spine2
			{
				OFFSET -0.372300 16.307602 -0.352600
				CHANNELS 3 Xrotation Yrotation Zrotation
				JOINT Neck
				{
					OFFSET -0.418800 17.814194 8.416900
					CHANNELS 3 Xrotation Yrotation Zrotation
					JOINT Head
					{
						OFFSET 0.000000 7.031097 3.806800
						CHANNELS 3 Xrotation Yrotation Zrotation
						JOINT HeadTop_End
						{
							OFFSET 0.000000 24.646606 12.978600
							CHANNELS 3 Xrotation Yrotation Zrotation
							End Site
							{
								OFFSET 0.000000 27.854965 0.000000
							}
						}
					}
				}
				JOINT LeftShoulder
				{
					OFFSET 16.952999 14.495407 -7.737500
					CHANNELS 3 Xrotation Yrotation Zrotation
					JOINT LeftArm
					{
						OFFSET 9.308998 -2.777710 0.208600
						CHANNELS 3 Xrotation Yrotation Zrotation
						JOINT LeftForeArm
						{
							OFFSET 29.972298 0.000000 0.000000
							CHANNELS 3 Xrotation Yrotation Zrotation
							JOINT LeftHand
							{
								OFFSET 26.026505 0.000000 0.000000
								CHANNELS 3 Xrotation Yrotation Zrotation
								JOINT LeftHandThumb1
								{
									OFFSET 12.240501 -7.147949 9.207150
									CHANNELS 3 Xrotation Yrotation Zrotation
									JOINT LeftHandThumb2
									{
										OFFSET 4.138618 -2.389435 2.389433
										CHANNELS 3 Xrotation Yrotation Zrotation
										JOINT LeftHandThumb3
										{
											OFFSET 2.726913 -1.574387 1.574386
											CHANNELS 3 Xrotation Yrotation Zrotation
											JOINT LeftHandThumb4
											{
												OFFSET 3.941010 -2.275345 2.275342
												CHANNELS 3 Xrotation Yrotation Zrotation
												End Site
												{
													OFFSET -0.005798 5.087799 0.009903
												}
											}
										}
									}
								}
								JOINT LeftHandIndex1
								{
									OFFSET 24.424698 -1.985611 5.953459
									CHANNELS 3 Xrotation Yrotation Zrotation
									JOINT LeftHandIndex2
									{
										OFFSET 6.426697 0.000000 0.000000
										CHANNELS 3 Xrotation Yrotation Zrotation
										JOINT LeftHandIndex3
										{
											OFFSET 5.337898 0.000000 0.000000
											CHANNELS 3 Xrotation Yrotation Zrotation
											JOINT LeftHandIndex4
											{
												OFFSET 4.409401 0.000000 0.000000
												CHANNELS 3 Xrotation Yrotation Zrotation
												End Site
												{
													OFFSET 0.000000 4.409363 0.014373
												}
											}
										}
									}
								}
								JOINT LeftHandMiddle1
								{
									OFFSET 23.810104 0.000000 0.000000
									CHANNELS 3 Xrotation Yrotation Zrotation
									JOINT LeftHandMiddle2
									{
										OFFSET 7.176498 0.000000 0.000000
										CHANNELS 3 Xrotation Yrotation Zrotation
										JOINT LeftHandMiddle3
										{
											OFFSET 6.774902 0.000000 0.000000
											CHANNELS 3 Xrotation Yrotation Zrotation
											JOINT LeftHandMiddle4
											{
												OFFSET 5.403328 0.000000 0.000000
												CHANNELS 3 Xrotation Yrotation Zrotation
												End Site
												{
													OFFSET -0.027702 5.403244 0.017414
												}
											}
										}
									}
								}
								JOINT LeftHandRing1
								{
									OFFSET 22.908401 -0.839279 -6.020567
									CHANNELS 3 Xrotation Yrotation Zrotation
									JOINT LeftHandRing2
									{
										OFFSET 6.337502 0.000000 0.000000
										CHANNELS 3 Xrotation Yrotation Zrotation
										JOINT LeftHandRing3
										{
											OFFSET 5.779297 0.000000 0.000000
											CHANNELS 3 Xrotation Yrotation Zrotation
											JOINT LeftHandRing4
											{
												OFFSET 4.965698 0.000000 0.000000
												CHANNELS 3 Xrotation Yrotation Zrotation
												End Site
												{
													OFFSET 0.000000 4.965668 0.016186
												}
											}
										}
									}
								}
								JOINT LeftHandPinky1
								{
									OFFSET 20.037003 -1.530319 -10.950146
									CHANNELS 3 Xrotation Yrotation Zrotation
									JOINT LeftHandPinky2
									{
										OFFSET 5.254700 0.000000 0.000000
										CHANNELS 3 Xrotation Yrotation Zrotation
										JOINT LeftHandPinky3
										{
											OFFSET 4.810204 0.000000 0.000000
											CHANNELS 3 Xrotation Yrotation Zrotation
											JOINT LeftHandPinky4
											{
												OFFSET 3.647202 0.000000 0.000000
												CHANNELS 3 Xrotation Yrotation Zrotation
												End Site
												{
													OFFSET 0.000000 3.647186 0.011889
												}
											}
										}
									}
								}
							}
						}
					}
				}
				JOINT RightShoulder
				{
					OFFSET -15.141001 14.495407 -7.737500
					CHANNELS 3 Xrotation Yrotation Zrotation
					JOINT RightArm
					{
						OFFSET -9.308998 -2.777710 0.208500
						CHANNELS 3 Xrotation Yrotation Zrotation
						JOINT RightForeArm
						{
							OFFSET -29.972300 0.000000 0.000000
							CHANNELS 3 Xrotation Yrotation Zrotation
							JOINT RightHand
							{
								OFFSET -26.026505 0.000000 0.000000
								CHANNELS 3 Xrotation Yrotation Zrotation
								JOINT RightHandThumb1
								{
									OFFSET -12.240601 -7.148026 9.207092
									CHANNELS 3 Xrotation Yrotation Zrotation
									JOINT RightHandThumb2
									{
										OFFSET -4.138618 -2.389435 2.389433
										CHANNELS 3 Xrotation Yrotation Zrotation
										JOINT RightHandThumb3
										{
											OFFSET -2.726974 -1.574417 1.574421
											CHANNELS 3 Xrotation Yrotation Zrotation
											JOINT RightHandThumb4
											{
												OFFSET -3.941010 -2.275345 2.275343
												CHANNELS 3 Xrotation Yrotation Zrotation
												End Site
												{
													OFFSET 0.005814 5.087799 0.009927
												}
											}
										}
									}
								}
								JOINT RightHandIndex1
								{
									OFFSET -24.424698 -1.985657 5.953444
									CHANNELS 3 Xrotation Yrotation Zrotation
									JOINT RightHandIndex2
									{
										OFFSET -6.426697 0.000000 0.000000
										CHANNELS 3 Xrotation Yrotation Zrotation
										JOINT RightHandIndex3
										{
											OFFSET -5.337898 0.000000 0.000000
											CHANNELS 3 Xrotation Yrotation Zrotation
											JOINT RightHandIndex4
											{
												OFFSET -4.409401 0.000000 0.000000
												CHANNELS 3 Xrotation Yrotation Zrotation
												End Site
												{
													OFFSET 0.000000 4.409363 0.014408
												}
											}
										}
									}
								}
								JOINT RightHandMiddle1
								{
									OFFSET -23.810097 0.000000 0.000000
									CHANNELS 3 Xrotation Yrotation Zrotation
									JOINT RightHandMiddle2
									{
										OFFSET -7.176498 0.000000 0.000000
										CHANNELS 3 Xrotation Yrotation Zrotation
										JOINT RightHandMiddle3
										{
											OFFSET -6.774902 0.000000 0.000000
											CHANNELS 3 Xrotation Yrotation Zrotation
											JOINT RightHandMiddle4
											{
												OFFSET -5.403328 0.000000 0.000000
												CHANNELS 3 Xrotation Yrotation Zrotation
												End Site
												{
													OFFSET 0.027702 5.403244 0.017457
												}
											}
										}
									}
								}
								JOINT RightHandRing1
								{
									OFFSET -22.908302 -0.839325 -6.020576
									CHANNELS 3 Xrotation Yrotation Zrotation
									JOINT RightHandRing2
									{
										OFFSET -6.337502 0.000000 0.000000
										CHANNELS 3 Xrotation Yrotation Zrotation
										JOINT RightHandRing3
										{
											OFFSET -5.779297 0.000000 0.000000
											CHANNELS 3 Xrotation Yrotation Zrotation
											JOINT RightHandRing4
											{
												OFFSET -4.965698 0.000000 0.000000
												CHANNELS 3 Xrotation Yrotation Zrotation
												End Site
												{
													OFFSET 0.000000 4.965668 0.016226
												}
											}
										}
									}
								}
								JOINT RightHandPinky1
								{
									OFFSET -20.037003 -1.530334 -10.950259
									CHANNELS 3 Xrotation Yrotation Zrotation
									JOINT RightHandPinky2
									{
										OFFSET -5.254700 0.000000 0.000000
										CHANNELS 3 Xrotation Yrotation Zrotation
										JOINT RightHandPinky3
										{
											OFFSET -4.810204 0.000000 0.000000
											CHANNELS 3 Xrotation Yrotation Zrotation
											JOINT RightHandPinky4
											{
												OFFSET -3.647202 0.000000 0.000000
												CHANNELS 3 Xrotation Yrotation Zrotation
												End Site
												{
													OFFSET 0.000000 3.647186 0.011917
												}
											}
										}
									}
								}
							}
						}
					}
				}
			}
		}
	}
	JOINT LeftUpLeg
	{
		OFFSET 15.427100 -6.655098 0.678600
		CHANNELS 3 Xrotation Yrotation Zrotation
		JOINT LeftLeg
		{
			OFFSET 4.081073 -39.591068 13.024000
			CHANNELS 3 Xrotation Yrotation Zrotation
			JOINT LeftFoot
			{
				OFFSET -4.081074 -37.707932 -15.979700
				CHANNELS 3 Xrotation Yrotation Zrotation
				JOINT LeftToeBase
				{
					OFFSET 5.346399 -15.068900 20.645000
					CHANNELS 3 Xrotation Yrotation Zrotation
					JOINT LeftToe_End
					{
						OFFSET 2.754700 0.931300 11.300900
						CHANNELS 3 Xrotation Yrotation Zrotation
						End Site
						{
							OFFSET 0.000000 11.669021 0.000000
						}
					}
				}
			}
		}
	}
	JOINT RightUpLeg
	{
		OFFSET -15.569500 -6.655098 0.678600
		CHANNELS 3 Xrotation Yrotation Zrotation
		JOINT RightLeg
		{
			OFFSET -4.081825 -39.591045 13.023800
			CHANNELS 3 Xrotation Yrotation Zrotation
			JOINT RightFoot
			{
				OFFSET 4.081824 -37.707954 -15.979600
				CHANNELS 3 Xrotation Yrotation Zrotation
				JOINT RightToeBase
				{
					OFFSET -5.346400 -15.068900 20.645000
					CHANNELS 3 Xrotation Yrotation Zrotation
					JOINT RightToe_End
					{
						OFFSET -2.754700 0.931300 11.300900
						CHANNELS 3 Xrotation Yrotation Zrotation
						End Site
						{
							OFFSET 0.000000 11.669021 0.000000
						}
					}
				}
			}
		}
	}
}
MOTION
Frames: 5
Frame Time: 0.033333
2.195124 72.838989 -1.714698 -5.400175 -46.432084 -0.526798 9.420039 7.435523 -1.366558 2.187716 0.989896 -0.915630 2.202829 0.982776 -0.894153 0.084652 13.220559 4.538682 8.920926 20.138145 -4.130233 0.000001 0.000000 0.000001 1.117177 3.546352 -8.633307 -53.487027 4.935510 -51.503007 0.000060 -106.358114 0.000057 1.988606 -7.706150 -15.869262 -6.141217 -11.690797 -6.761690 9.914113 42.595512 3.409858 -0.422809 8.108096 27.509113 0.000000 0.000001 0.000001 0.255313 3.378217 -45.814337 5.654092 5.847758 -88.067448 2.162141 4.544811 -50.866393 0.000000 -0.000002 0.000000 -0.461473 3.841596 -39.722690 6.450751 5.820356 -95.892871 2.182886 4.561573 -51.127736 0.000001 -0.000001 0.000001 0.469720 4.966832 -39.799454 8.181044 5.368621 -113.502984 3.200487 5.218113 -63.022968 -0.000001 0.000000 0.000001 -3.762429 9.063687 -45.253825 5.342543 5.829005 -85.005324 8.716830 5.103330 -119.369181 0.000001 0.000001 0.000000 3.036126 13.027202 -5.371408 -48.713712 27.172834 83.457071 0.000093 105.988273 -0.000079 -8.345368 17.548086 8.775679 -7.341107 13.749651 7.412343 9.855794 -44.489089 -3.903282 -0.115782 -14.513075 -28.973857 0.000000 -0.000001 -0.000000 -0.124374 -2.384791 45.108857 4.500582 -4.654543 88.071143 1.723225 -3.618376 50.920109 -0.000000 -0.000001 -0.000002 -0.761617 -2.932906 39.031055 5.133878 -4.632764 95.881635 1.739749 -3.631701 51.181367 0.000003 -0.000003 0.000002 0.154761 -4.068819 39.122664 6.509731 -4.273603 113.462884 2.549585 -4.153930 63.067337 0.000001 -0.000001 -0.000001 -4.198876 -8.025515 44.637783 4.252916 -4.639640 85.014818 6.935963 -4.062624 119.322285 -0.000003 -0.000000 -0.000000 -34.255472 5.085973 20.300760 56.771703 -7.634005 3.672676 -20.133045 -7.078575 -17.222785 -1.594033 -0.000017 0.000005 -0.000000 -0.000002 -0.000000 -19.408606 -8.980148 -34.667622 57.008020 -2.876413 -4.766515 -26.306516 -10.338638 26.246308 -0.013000 0.000034 -0.000006 0.000000 -0.000000 -0.000000 
2.404361 73.196915 -2.158228 -5.068835 -47.707403 -1.443959 9.549225 6.978882 -2.202642 2.274800 0.690582 -0.394228 2.735868 0.571836 -0.580547 -0.679213 13.636917 5.096619 7.461548 21.610843 -4.491757 0.000000 0.000000 0.000000 0.964604 2.899992 -7.665596 -53.954512 7.318237 -50.824906 0.000103 -106.854949 0.000104 2.155043 -7.492613 -15.752831 -6.141216 -11.690794 -6.761687 9.914116 42.595505 3.409865 -0.422807 8.108092 27.509118 -0.000002 0.000000 0.000000 0.255313 3.378219 -45.814334 5.654087 5.847757 -88.067455 2.162143 4.544813 -50.866386 0.000000 -0.000001 -0.000001 -0.461474 3.841598 -39.722686 6.450749 5.820355 -95.892871 2.182888 4.561573 -51.127736 -0.000000 0.000000 0.000000 0.469721 4.966829 -39.799454 8.181046 5.368620 -113.502984 3.200484 5.218113 -63.022968 0.000001 -0.000000 0.000002 -3.762429 9.063685 -45.253825 5.342542 5.829005 -85.005324 8.716831 5.103331 -119.369181 0.000000 0.000001 0.000001 2.631375 14.628776 -6.688166 -47.598297 24.887696 83.561040 0.000048 106.705347 -0.000037 -8.892605 17.746575 9.613423 -7.341108 13.749655 7.412342 9.855792 -44.489086 -3.903273 -0.115785 -14.513076 -28.973861 -0.000002 -0.000002 -0.000001 -0.124373 -2.384789 45.108857 4.500583 -4.654543 88.071143 1.723224 -3.618378 50.920109 0.000000 -0.000001 -0.000001 -0.761617 -2.932905 39.031051 5.133881 -4.632766 95.881635 1.739751 -3.631701 51.181370 0.000001 -0.000001 -0.000000 0.154761 -4.068820 39.122668 6.509732 -4.273607 113.462884 2.549583 -4.153929 63.067337 0.000000 0.000000 -0.000001 -4.198875 -8.025511 44.637783 4.252920 -4.639638 85.014818 6.935965 -4.062627 119.322285 0.000001 0.000000 0.000000 -34.390026 4.876038 22.308974 56.335585 -7.237585 3.298650 -19.897338 -7.260886 -17.734528 -1.716222 -0.000000 0.000003 0.000000 0.000000 -0.000000 -21.489302 -8.585266 -32.299224 57.923249 -2.583415 -5.245013 -25.420212 -10.220577 23.012470 -3.709873 0.000003 0.000007 0.000000 0.000000 -0.000000 
2.740892 73.943573 -2.624884 -5.823574 -48.703613 -3.271792 9.842451 6.514285 -2.977696 2.594061 0.220488 0.239077 3.712061 -0.076405 -0.090980 -1.349699 13.925584 5.429021 5.688209 23.264179 -5.192008 -0.000000 -0.000000 -0.000000 1.037612 1.199059 -7.107605 -54.792242 10.102762 -49.178018 0.000253 -107.561607 0.000242 2.380710 -7.378193 -15.619611 -6.141217 -11.690799 -6.761684 9.914113 42.595512 3.409861 -0.422810 8.108098 27.509113 0.000002 0.000001 -0.000001 0.255312 3.378217 -45.814331 5.654087 5.847757 -88.067455 2.162141 4.544810 -50.866389 -0.000001 0.000000 -0.000004 -0.461475 3.841596 -39.722686 6.450752 5.820356 -95.892871 2.182888 4.561573 -51.127736 -0.000001 0.000001 -0.000004 0.469719 4.966828 -39.799451 8.181046 5.368621 -113.502984 3.200486 5.218117 -63.022968 0.000001 0.000000 -0.000000 -3.762429 9.063682 -45.253825 5.342545 5.829004 -85.005324 8.716830 5.103327 -119.369181 0.000001 -0.000000 -0.000000 2.447479 17.032482 -7.890694 -46.479810 21.664752 83.374466 0.000028 106.785807 -0.000029 -9.189487 17.981994 10.084205 -7.341107 13.749655 7.412342 9.855787 -44.489083 -3.903271 -0.115788 -14.513076 -28.973861 -0.000001 -0.000003 -0.000000 -0.124374 -2.384784 45.108857 4.500581 -4.654544 88.071143 1.723222 -3.618380 50.920112 0.000002 0.000001 -0.000000 -0.761618 -2.932904 39.031051 5.133882 -4.632764 95.881635 1.739746 -3.631703 51.181370 -0.000000 -0.000003 -0.000003 0.154761 -4.068815 39.122668 6.509735 -4.273606 113.462891 2.549583 -4.153929 63.067337 -0.000000 -0.000003 0.000000 -4.198877 -8.025511 44.637783 4.252919 -4.639640 85.014818 6.935962 -4.062628 119.322298 -0.000001 0.000000 -0.000000 -33.566125 4.626919 24.107149 55.296412 -6.665754 2.965615 -19.320479 -7.602549 -18.207141 -1.717896 -0.000000 -0.000003 -0.000000 -0.000000 -0.000000 -22.508415 -8.464291 -29.923800 57.943452 -1.689561 -5.604779 -22.924271 -10.459326 20.920422 -7.292356 0.000014 0.000000 -0.000000 -0.000001 -0.000000 
3.063735 74.599335 -3.143543 -7.264862 -49.510112 -5.404913 10.319545 6.094944 -3.521940 3.133471 -0.307155 0.668681 5.041938 -0.842046 0.497948 -1.881027 14.167110 5.403975 4.311200 24.976851 -6.166336 -0.000000 -0.000000 0.000000 1.281192 -0.545212 -7.296947 -56.602929 12.537595 -47.313963 0.000093 -108.009360 0.000101 2.505791 -7.393234 -15.514361 -6.141216 -11.690799 -6.761681 9.914116 42.595508 3.409864 -0.422808 8.108093 27.509116 -0.000002 -0.000001 0.000001 0.255313 3.378216 -45.814331 5.654092 5.847757 -88.067455 2.162143 4.544812 -50.866389 0.000000 0.000000 -0.000000 -0.461474 3.841597 -39.722690 6.450749 5.820355 -95.892871 2.182889 4.561570 -51.127733 -0.000000 0.000002 0.000001 0.469721 4.966827 -39.799444 8.181046 5.368620 -113.502984 3.200486 5.218113 -63.022968 0.000002 -0.000000 -0.000000 -3.762429 9.063682 -45.253818 5.342542 5.829003 -85.005324 8.716828 5.103330 -119.369181 0.000001 -0.000001 -0.000000 2.481445 19.759893 -9.006410 -45.646964 17.907926 83.413262 0.000089 106.379513 -0.000071 -9.260352 18.218017 10.397080 -7.341108 13.749656 7.412343 9.855787 -44.489086 -3.903273 -0.115785 -14.513076 -28.973857 0.000001 -0.000001 -0.000002 -0.124373 -2.384787 45.108857 4.500583 -4.654542 88.071143 1.723223 -3.618377 50.920109 -0.000001 -0.000002 0.000000 -0.761617 -2.932904 39.031051 5.133883 -4.632764 95.881635 1.739748 -3.631700 51.181367 -0.000000 -0.000000 0.000000 0.154761 -4.068821 39.122668 6.509730 -4.273604 113.462884 2.549585 -4.153926 63.067330 -0.000001 0.000001 -0.000003 -4.198875 -8.025510 44.637783 4.252924 -4.639639 85.014818 6.935963 -4.062626 119.322298 -0.000002 -0.000000 0.000000 -32.549417 4.824576 25.800155 54.282331 -6.447309 2.672041 -18.636296 -8.057971 -18.429507 -1.730095 -0.000009 0.000005 -0.000000 -0.000002 -0.000000 -23.215589 -8.564653 -28.112034 58.109385 -1.031492 -5.888294 -20.385369 -10.411062 19.137794 -10.979662 -0.000040 0.000003 -0.000000 -0.000001 0.000001 
3.266033 75.218636 -3.641024 -8.731108 -50.134183 -7.329622 10.903924 5.760999 -3.717070 3.810185 -0.739580 0.899652 6.518376 -1.579818 1.134270 -2.260115 14.420418 4.997240 3.600612 26.468095 -7.448157 -0.000001 0.000000 -0.000000 1.569104 -1.602187 -8.165074 -58.562807 14.145580 -45.955408 -0.000007 -108.333323 0.000005 2.456129 -7.529065 -15.491241 -6.141219 -11.690799 -6.761676 9.914124 42.595512 3.409857 -0.422812 8.108096 27.509118 -0.000002 -0.000001 -0.000001 0.255311 3.378215 -45.814334 5.654085 5.847758 -88.067455 2.162142 4.544810 -50.866389 -0.000000 0.000001 0.000000 -0.461477 3.841598 -39.722683 6.450753 5.820357 -95.892871 2.182889 4.561573 -51.127736 -0.000000 0.000000 0.000000 0.469718 4.966829 -39.799451 8.181044 5.368622 -113.502984 3.200487 5.218115 -63.022968 0.000000 0.000001 -0.000001 -3.762433 9.063686 -45.253814 5.342544 5.829004 -85.005324 8.716830 5.103329 -119.369181 0.000001 0.000000 -0.000001 2.862388 22.321627 -9.968280 -45.741470 14.935153 83.590020 0.000088 106.338279 -0.000091 -8.850730 18.382443 10.435314 -7.341106 13.749655 7.412345 9.855791 -44.489093 -3.903274 -0.115784 -14.513076 -28.973857 0.000000 -0.000003 0.000001 -0.124372 -2.384789 45.108857 4.500583 -4.654544 88.071143 1.723229 -3.618376 50.920109 0.000000 0.000000 0.000000 -0.761617 -2.932907 39.031055 5.133878 -4.632764 95.881635 1.739749 -3.631698 51.181370 0.000002 0.000003 0.000003 0.154763 -4.068821 39.122668 6.509735 -4.273606 113.462891 2.549583 -4.153931 63.067337 -0.000002 -0.000001 -0.000001 -4.198873 -8.025513 44.637783 4.252917 -4.639642 85.014818 6.935964 -4.062629 119.322298 -0.000002 -0.000000 0.000000 -31.633379 5.417188 27.337265 53.197222 -6.527491 2.417252 -17.898697 -8.587566 -18.472764 -1.804958 -0.000015 0.000002 -0.000000 0.000000 0.000000 -23.397810 -8.216847 -27.794955 58.161499 -2.267713 -4.970508 -17.893726 -8.142356 18.561662 -14.651521 0.000016 0.000004 -0.000000 0.000001 -0.000000 
